<svg width="21" height="20" viewBox="0 0 21 20" fill="none" xmlns="http://www.w3.org/2000/svg">
<path d="M18.9944 0.600167L18.9949 0.59989C19.1943 0.484571 19.4118 0.473877 19.6019 0.537742L19.1197 0.816002L1.61967 10.9137L1.13466 11.1935C1.17381 10.9956 1.29251 10.8107 1.49466 10.6938C1.49473 10.6937 1.49479 10.6937 1.49486 10.6936L18.9944 0.600167ZM19.8638 1.32491L19.9482 0.774695C20.0762 0.928387 20.145 1.13492 20.1097 1.3646L20.1097 1.36465L17.6097 17.6576L17.6096 17.6587C17.5761 17.8802 17.4496 18.0602 17.2789 18.1712L17.3638 17.6179L19.8638 1.32491ZM16.6786 18.0042L17.196 18.2179C17.0124 18.3069 16.792 18.3223 16.5841 18.2363L16.5839 18.2362L11.6464 16.1971L11.3044 16.0559L11.0693 16.3416L8.69825 19.2244L8.6981 19.2246C8.54836 19.4068 8.34922 19.4922 8.15078 19.4985L8.50582 19.0666L10.6347 16.4767L11.0637 15.9549L10.4393 15.6971L8.31037 14.8182L7.61956 14.533V15.2803V18.7491V19.3089C7.46971 19.1781 7.36956 18.9855 7.36956 18.7491V14.7647V14.4305L7.0607 14.3027L1.58414 12.0371L1.58357 12.0368C1.37077 11.9491 1.22946 11.7846 1.16338 11.5964L1.67896 11.809L6.11256 13.6371L6.39499 13.7536L6.6275 13.5554L14.1203 7.16907L8.43317 13.891L7.99043 14.4143L8.62394 14.676L16.6786 18.0042Z" fill="#FBFBFB" stroke="#0C0C0C"/>
</svg>
